<svg xmlns="http://www.w3.org/2000/svg" viewBox="0 0 1786.77 2306.45"><defs><style>.cls-1{fill:#fff;}.cls-2{fill:#000072;}.cls-3{opacity:0.3;}.cls-4{fill:#d69f65;}.cls-5{fill:#ff8080;}.cls-6{fill:#181558;}.cls-7{opacity:0.7;}.cls-8{fill:#fc7e81;}.cls-9{fill:#bf9362;}.cls-10{fill:#ff781d;}.cls-11{fill:#39d5ff;}.cls-12{fill:#102770;}.cls-13{opacity:0.35;}.cls-14{fill:#390075;}</style></defs><g id="Layer_2" data-name="Layer 2"><g id="Layer_1-2" data-name="Layer 1"><path class="cls-1" d="M956.72,2107.52s122.47-16.42,185.5,26.61c61.7,42.11,61.76,103.83-.58,127.81-53.74,20.67-288.67,38.94-296.59-77.83,0,0-3.18-19.66-1.38-31.74"/><path class="cls-2" d="M1024.23,2279.68c-50.34,0-104.77-7.61-141.24-30.89-25-16-38.61-37.66-40.43-64.51-.11-.59-3.2-20-1.36-32.29l4.94.74c-1.72,11.57,1.35,30.79,1.38,31,1.73,25.41,14.57,45.8,38.16,60.86,72.58,46.32,217.94,29.32,255.06,15,26.43-10.17,42.37-27.6,44.87-49.07,3-25.39-13.79-53.18-44.8-74.35-61.5-42-182.55-26.36-183.76-26.2l-.67-4.95c5-.68,124.15-16.05,187.25,27,32.57,22.23,50.12,51.79,46.94,79.06-2.72,23.41-19.78,42.29-48,53.15C1123.41,2271.63,1076,2279.68,1024.23,2279.68Z"/><path class="cls-1" d="M1141.63,2261.94c-49,18.85-248.86,35.73-289.54-50.14a76.21,76.21,0,0,1-7-27.69s-3.21-19.67-1.4-31.75l113-44.84s90.09-12.1,155.5,11.61a133.41,133.41,0,0,1,30,15C1203.93,2176.24,1204,2238,1141.63,2261.94Z"/><path class="cls-2" d="M1025.07,2279.69c-71.41,0-150.79-15.21-175.24-66.82a79.24,79.24,0,0,1-7.26-28.59c-.11-.59-3.22-20-1.37-32.29l.21-1.42,115-45.52c.91-.13,91.46-11.92,156.69,11.73a136.37,136.37,0,0,1,30.57,15.27c32.57,22.23,50.12,51.79,46.95,79.07-2.73,23.4-19.79,42.29-48,53.15h0C1122.36,2272,1075.71,2279.69,1025.07,2279.69ZM846,2154.14c-1.3,11.63,1.54,29.39,1.57,29.57a74.74,74.74,0,0,0,6.82,27c39.78,84,240.29,66.6,286.38,48.88,26.44-10.17,42.38-27.6,44.88-49.08,3-25.39-13.79-53.18-44.8-74.35a131.33,131.33,0,0,0-29.46-14.7c-62.21-22.56-148.27-12.25-154-11.52Z"/><g class="cls-3"><path class="cls-2" d="M1076.33,2211.61c-35.21,13.56-148.27,26-224.24.19a76.21,76.21,0,0,1-7-27.69s-3.21-19.67-1.4-31.75l113-44.84s90.09-12.1,155.5,11.61C1134.52,2155.11,1122.67,2193.77,1076.33,2211.61Z"/></g><path class="cls-2" d="M1025.41,2293.35c-53.21,0-110.79-8.36-149.68-33.18-28.19-18-44.29-43.65-46.59-74.24-.67-4.36-3.25-22.78-1.29-35.92a16,16,0,1,1,31.65,4.71c-1.17,7.86.63,22.37,1.35,26.84L861,2183c1.42,20.95,11.86,37.36,31.93,50.17,64.15,40.94,202,29.57,243,13.81,21.51-8.28,34.4-21.78,36.29-38,2.37-20.31-12.21-43.36-39-61.64-57.29-39.11-173.19-24.12-174.36-24a16,16,0,0,1-4.25-31.72c5.25-.71,129.33-16.72,196.65,29.25,37.34,25.49,56.56,58.94,52.74,91.77-3.28,28.23-23.91,51.62-56.6,64.19C1125.39,2285.33,1077.5,2293.35,1025.41,2293.35Z"/><path class="cls-1" d="M1276.28,1893.85c6.47,69.79-80.87,135.31-131.38,135.31a91.45,91.45,0,0,1-91.46-91.45c0-50.51,54.76-56.75,91.46-91.46C1189.85,1803.73,1270.2,1828.33,1276.28,1893.85Z"/><path class="cls-2" d="M1144.9,2031.66a94.06,94.06,0,0,1-94-94c0-34.86,25.29-49.67,52.06-65.34,13.75-8.06,28-16.39,40.18-27.93,22.62-21.4,55.3-27.68,85.3-16.37,28.68,10.81,47.48,35.32,50.29,65.56,2.57,27.78-9.44,57.81-33.83,84.57C1216.24,2009.68,1175.1,2031.66,1144.9,2031.66Zm53.56-204.12a75,75,0,0,0-51.84,20.53c-12.63,11.94-27.1,20.41-41.1,28.61-26.6,15.58-49.58,29-49.58,61a89.06,89.06,0,0,0,89,89c28.45,0,69-21.79,96.34-51.83,23.43-25.7,35-54.38,32.55-80.75-2.63-28.28-20.22-51.21-47.07-61.33A80.1,80.1,0,0,0,1198.46,1827.54Z"/><g class="cls-3"><path class="cls-2" d="M1144.9,2029.16a91.45,91.45,0,0,1-91.46-91.46,53.78,53.78,0,0,1,5.06-23.72,91.42,91.42,0,0,0,79.66,46.47c41.77,0,108.77-44.84,127-99.86a74.43,74.43,0,0,1,11.11,33.27C1282.73,1963.63,1195.4,2029.16,1144.9,2029.16Z"/></g><path class="cls-2" d="M1144.9,2045.16a107.58,107.58,0,0,1-107.46-107.45c0-42.6,31.21-60.87,58.74-77,13.09-7.68,26.63-15.61,37.72-26.09,26.41-25,64.5-32.33,99.34-19.19,33.64,12.67,55.68,41.43,59,76.94h0c2.93,31.61-10.31,65.32-37.3,94.91C1223.85,2021.36,1178.61,2045.16,1144.9,2045.16Zm53.59-204.11a61.6,61.6,0,0,0-42.59,16.83c-13.75,13-29.58,22.27-43.55,30.45-28.19,16.51-42.9,26.21-42.9,49.38a75.53,75.53,0,0,0,75.45,75.45c24.59,0,61.72-20.39,86.37-47.43,20.84-22.86,31.16-47.86,29.07-70.4h0c-2.13-23-16.48-41.69-38.38-49.95A66.5,66.5,0,0,0,1198.49,1841.05Z"/><path class="cls-1" d="M638.19,2163.53s-17.57,52.88-84.44,93.25c-55.07,33.23-269.39,61-281.06-13.91-5.58-35.76,10.15-58.4,28.1-72.31,19.63-15.21,41.92-19.95,41.92-19.95l272.88,11.93Z"/><path class="cls-2" d="M385.71,2292.84c-33.12,0-63.72-4.05-84.65-13.82-18.08-8.44-28.46-20.47-30.84-35.77-4.75-30.44,5.29-56.27,29-74.67a117.82,117.82,0,0,1,42.93-20.42l.31-.06h.32l298.79,13.07-1.05,3.14c-.72,2.2-18.62,54.22-85.52,94.6C524.36,2277.44,450.26,2292.84,385.71,2292.84Zm-42.77-139.72c-2.67.63-22.9,5.69-40.61,19.42-22.55,17.46-31.69,41-27.17,69.94,2.11,13.55,11.54,24.31,28,32,60.52,28.26,203.67,7.69,249.27-19.84,56.09-33.85,77.19-76.91,82.15-88.76Z"/><g class="cls-3"><path class="cls-2" d="M615.59,2162.54a236.24,236.24,0,0,1-33.4,24.26c-55.07,33.26-269.39,61-281.06-13.88-.13-.8-.24-1.59-.34-2.36,19.63-15.21,41.92-19.95,41.92-19.95Z"/></g><path class="cls-2" d="M384.86,2306.45c-34.18,0-66.28-4.36-89.52-15.2-27.9-13-36.31-32.16-38.46-45.91C245.81,2174.26,306,2142.06,339.4,2135a16,16,0,0,1,6.7,31.29c-6.89,1.52-66.6,16.39-57.6,74.16.52,3.28,2.07,13.29,20.38,21.83,56.15,26.19,194.27,6.38,236.61-19.18,60.41-36.47,77.37-84.2,77.53-84.67a16,16,0,0,1,30.35,10.16c-.8,2.39-20.25,59-91.34,101.91C532.1,2288.53,454.2,2306.44,384.86,2306.45Z"/><path class="cls-2" d="M1074.81,1938.88a254.43,254.43,0,0,1-37.11-2.49l-9.21-1.47-3.26-8.73c-13.17-35.26-127.53-346.63-88.63-422.27,6.92-13.45,17-18.6,24.24-20.55,59.21-16,111.69-22.32,155.94-18.91a108.2,108.2,0,0,1,97,84.82c24.62,115.38,46.49,265,10.85,322.29C1188.82,1929.16,1118.3,1938.88,1074.81,1938.88Zm-23-33.09c27.64,2.42,111,4.6,145.64-51.12,22.74-36.58,17.14-148.25-15-298.71a76,76,0,0,0-68.14-59.6c-40.61-3.12-89.47,2.9-145.16,17.91-.6.16-2.21.59-4.11,4.29C941.19,1565,1004.28,1776.64,1051.8,1905.79Z"/><path class="cls-1" d="M1157.21,1615.34a40.14,40.14,0,0,0-33.89,46.16,378.11,378.11,0,0,1,4.41,39.63c2.72,54.8-9.58,106.72,9.07,119.58,18.45,12.73,70.09,16.28,101.79-17,24-25.15,11.73-111.47,2-161.86a40.09,40.09,0,0,0-45.09-32.06Z"/><path class="cls-2" d="M1174.37,1832.24c-16.63,0-31.13-4-39-9.47-13.43-9.26-12.26-35.21-10.79-68.06.73-16.34,1.56-34.86.65-53.46a370.51,370.51,0,0,0-4.39-39.35,42.65,42.65,0,0,1,36-49l38.3-5.5a42.56,42.56,0,0,1,47.9,34.06c11.81,61.19,20.94,139.33-2.65,164.06C1221.48,1825.32,1196.11,1832.24,1174.37,1832.24Zm26.9-220.32a38.18,38.18,0,0,0-5.41.39l-38.29,5.51a37.63,37.63,0,0,0-31.78,43.29,375.11,375.11,0,0,1,4.44,39.9c.93,18.83.09,37.47-.64,53.92-1.4,31.31-2.51,56,8.63,63.72,16.93,11.68,67.06,16.4,98.56-16.62,23.29-24.41,10.84-110.51,1.36-159.66A37.56,37.56,0,0,0,1201.27,1611.92Z"/><path class="cls-2" d="M1173.81,1842.41c-17.79,0-33.85-4.34-44.11-11.41-18-12.4-16.71-40.79-15.1-76.74.72-16.12,1.54-34.39.65-52.51a361.28,361.28,0,0,0-4.28-38.28,52.65,52.65,0,0,1,44.46-60.5l38.3-5.51a52.55,52.55,0,0,1,59.14,42.07c17.83,92.37,16.07,150.52-5.24,172.86C1227.14,1833.87,1198.77,1842.4,1173.81,1842.41Zm27.45-220.48a28.14,28.14,0,0,0-4,.28l-38.3,5.5a27.65,27.65,0,0,0-23.32,31.82,385.49,385.49,0,0,1,4.56,41c1,19.29.1,38.19-.64,54.86-1,22.5-2.27,50.5,4.31,55,12.44,8.58,57.86,13.85,85.66-15.29,11.21-11.76,16.78-57.56-1.23-150.86A27.56,27.56,0,0,0,1201.26,1621.93Zm-44-6.59h0Z"/><path class="cls-1" d="M541,1403.41l-46.92,86.88-82.08,152c-23.12,2.08-55.2-1.16-91.32-10.44-99.36-25.48-229.4-96.6-288.2-228.32-51.48-115.24,25-229.88,117-149.32a616.58,616.58,0,0,0,262.24,134.24c1.08.24,2.16.48,3.36.72C452.92,1397.09,541,1403.41,541,1403.41Z"/><g class="cls-3"><path class="cls-2" d="M412,1642.33c-86.68,7.8-299.36-59.16-379.52-238.76-18.36-41-20.44-82-11.4-114.16,1.08,2.8,2.28,5.6,3.52,8.4,80.2,179.56,292.84,246.56,379.56,238.76Z"/></g><path class="cls-2" d="M397.19,1659c-104.14,0-302.41-76.69-379.29-248.87-31.54-70.62-20.45-149.6,25.77-183.73,33.38-24.64,76.88-18.72,116.37,15.83,97.16,85,201.66,118.4,255.29,130.71,34.05,7.82,125.94,14.46,126.86,14.53a16,16,0,1,1-2.28,31.91c-3.87-.27-95.31-6.88-131.74-15.25-56.57-13-166.77-48.17-269.21-137.82-28.17-24.65-55.26-29.68-76.28-14.17C33,1274,19.06,1334.23,47.12,1397.05c80.13,179.45,289.7,236,363.5,229.35a16,16,0,0,1,2.87,31.88C408.37,1658.74,402.92,1659,397.19,1659Z"/><path class="cls-1" d="M1110.82,2091.55c-57.91,157.27-235.83,68.33-407.71,68.33-197.71,0-327.48,109.81-408.41-102.46-79.83-209.5,68.71-557,113.13-652.76,4.13-8.9,7.39-15.67,9.47-19.9l569.42,63.55c2.27,4.78,4.65,9.75,7.06,14.92C1062.53,1610,1179.53,1905.1,1110.82,2091.55Z"/><g class="cls-3"><path class="cls-2" d="M1110.84,2091.53c-57.92,157.28-235.84,68.36-407.72,68.36-188.48,0-315.2,99.76-396.72-74.72,80.08,61.16,190.72-1.6,340.2-1.6,171.88,0,349.8,88.92,407.72-68.32,60.48-164.12-22.88-412.32-90.64-569.52l23,2.56c2.28,4.8,4.64,9.76,7.08,14.92C1062.52,1610,1179.52,1905.09,1110.84,2091.53Z"/></g><path class="cls-2" d="M1056.88,2160c9-13.75,16.34-25.54,22.6-38s12.21-24.87,16.44-38.58a400.5,400.5,0,0,0,16.38-85.88c4.94-58.87-.13-119.49-12.09-178.72-5.94-29.65-13.26-59.11-21.59-88.31s-17.4-58.27-28.44-86.65c-5.47-14.21-11-28.38-16.34-42.65s-10.14-28.74-14.9-43.27-9.33-29.18-13.61-44-8.44-29.74-11.66-45.17a2.51,2.51,0,0,1,4.44-2.07,404.2,404.2,0,0,1,26.29,38.88q12.07,20,22.45,40.87t19.15,42.43c5.75,14.42,10.74,29.13,15.57,43.88,9.48,29.57,19.36,59,27.82,89s16.06,60.18,22.19,90.81,11.13,61.58,14.33,92.9,4.45,63.08,2.1,95c-2.63,31.83-8.81,63.88-20.62,94.27-5.88,15.28-13.3,30.81-24.75,43.59s-26.25,22.89-43.09,25.87a2.65,2.65,0,0,1-2.7-4.06Z"/><path class="cls-2" d="M587.64,2165.3A398.26,398.26,0,0,1,670,2147.52a416.63,416.63,0,0,1,84.81-.23q21,1.9,41.73,5.23l20.63,3.34,20.46,3.91c27.22,5.41,54,11.42,81,17.82h0a5,5,0,0,1-1,10c-28.08,1.08-56-1-83.48-3.34l-20.61-1.8-20.47-2c-13.65-1.23-27.21-2.4-40.73-3.41-27.09-2-53.76-3-80.85-2.86-27.09-.07-54.38,1.3-82.32,1a5.07,5.07,0,0,1-1.57-9.88Z"/><path class="cls-2" d="M429,2189.54a116.17,116.17,0,0,1-51.05-6.45c-4.21-1.45-8.17-3.48-12.31-5.25-3.92-2.1-7.83-4.34-11.61-6.75-3.61-2.6-7.5-5-10.91-7.85s-7-5.69-10-8.91a183.47,183.47,0,0,1-32-41.58,313.59,313.59,0,0,1-20.87-46.58c-11.8-32.23-18.78-65.76-22.21-99.21a593.24,593.24,0,0,1-.75-100.16c2.11-33.19,6.61-66,12.24-98.59s12.57-64.84,21.07-96.66,18.53-63.18,30-94c5.77-15.42,11.29-30.73,18.93-45.59a147.8,147.8,0,0,1,13.13-21.38A152,152,0,0,1,369.3,1491a2.65,2.65,0,0,1,4.51,1.92,154.19,154.19,0,0,1-2.57,25.27c-1.52,8.13-3.45,16.07-5.12,23.83-3.63,15.65-9.12,30.94-13.77,46.32-9.37,30.83-18.71,61.59-27.11,92.57-8.62,30.92-16.41,62-22.78,93.4-6.06,31.4-10.87,63-13.19,94.75a561.56,561.56,0,0,0,.67,94.7,418.91,418.91,0,0,0,7.34,46.23,288,288,0,0,0,14.07,44.1c6,14.49,12.83,28.42,19.95,41.94a264.83,264.83,0,0,0,24,38,186.85,186.85,0,0,0,14.73,16.46c2.65,2.55,5.55,4.78,8.28,7.33,3,2.16,5.82,4.65,9,6.64,12.38,8.48,26.72,14.84,42.25,20.19h0a2.5,2.5,0,0,1,1.55,3.18A2.47,2.47,0,0,1,429,2189.54Z"/><path class="cls-2" d="M754.83,1907.72c-37.79,0-77.65-1.29-119.42-4.24a16,16,0,1,1,2.25-31.92c222.55,15.73,390-16.72,470-37.47a36.88,36.88,0,0,0,27.53-37.63l-.08-1.46a37.11,37.11,0,0,0-15.07-27.74,36.6,36.6,0,0,0-30.55-6C1015,1779.73,857,1808.37,635,1792.68a16,16,0,1,1,2.25-31.92c217.57,15.43,371.91-12.55,444.55-30.58a68.87,68.87,0,0,1,85.27,62.93l.09,1.54a69,69,0,0,1-51.45,70.42C1048.88,1882.4,922.47,1907.72,754.83,1907.72Z"/><path class="cls-1" d="M248,1732.67a49,49,0,0,1,68.76-33.91c59.39,28.08,166.66,67.15,319.39,78,217.59,15.4,372.44-11.88,449.52-31,32.17-8,63.46,15.27,65.45,48.36l.09,1.51a52.79,52.79,0,0,1-39.49,54c-73.35,19-246.06,54.14-475.17,37.94-182.6-12.9-313.41-68.86-367.26-103.13A48.85,48.85,0,0,1,248,1732.67Z"/><path class="cls-2" d="M754.88,1894.22c-37.5,0-77.06-1.27-118.52-4.2-170.87-12.08-305.26-63.32-368.43-103.52a51.49,51.49,0,0,1-22.4-54.37l2.45.54-2.45-.54a51.53,51.53,0,0,1,72.28-35.63c62.63,29.61,168.72,67.12,318.49,77.73,219.4,15.54,375.34-12.72,448.76-31a55,55,0,0,1,46,9.08,55.55,55.55,0,0,1,22.59,41.56l.08,1.51a55.46,55.46,0,0,1-41.35,56.57C1046.16,1869.16,921,1894.22,754.88,1894.22Zm-459-197.66a46.61,46.61,0,0,0-25.26,85.72c62.68,39.89,196.17,90.74,366.1,102.75,224.47,15.88,393.55-16.92,474.36-37.87a50.44,50.44,0,0,0,37.62-51.44l-.08-1.5a50.61,50.61,0,0,0-20.56-37.84,50,50,0,0,0-41.79-8.24c-73.7,18.29-230.18,46.65-450.31,31.08-150.55-10.67-257.27-48.41-320.28-78.2A46.24,46.24,0,0,0,295.87,1696.56Z"/><g class="cls-3"><path class="cls-2" d="M1111.68,1849.57c-73.32,19-246,54.16-475.16,38-182.6-12.92-313.4-68.88-367.24-103.16A48.88,48.88,0,0,1,248,1732.65a47.87,47.87,0,0,1,3.76-10.88,48,48,0,0,0,16.68,18c53.84,34.28,184.64,90.24,367.28,103.12,229.08,16.2,401.8-18.92,475.16-37.92a52.76,52.76,0,0,0,35.32-30.4,52.19,52.19,0,0,1,4.92,19.44c0,.52.08,1,.12,1.52A52.78,52.78,0,0,1,1111.68,1849.57Z"/></g><path class="cls-2" d="M754.83,1907.72c-37.79,0-77.65-1.28-119.42-4.24-173.39-12.25-310.23-64.54-374.73-105.6a65.06,65.06,0,0,1,62.9-113.58c61.58,29.11,166,66,313.67,76.46,217.57,15.43,371.91-12.55,444.55-30.58a68.87,68.87,0,0,1,85.27,62.93l.09,1.54a69,69,0,0,1-51.45,70.42C1048.88,1882.4,922.47,1907.72,754.83,1907.72Zm-459-197.66a33.09,33.09,0,0,0-32.26,26h0a32.9,32.9,0,0,0,14.25,34.79c61.35,39,192.39,88.84,359.8,100.67,222.55,15.73,390-16.72,470-37.47a36.88,36.88,0,0,0,27.53-37.63l-.08-1.46a37.11,37.11,0,0,0-15.07-27.74,36.6,36.6,0,0,0-30.55-6C1015,1779.73,857,1808.37,635,1792.68c-152.64-10.81-261-49.17-325.1-79.45A32.79,32.79,0,0,0,295.87,1710.06ZM248,1732.67h0Z"/><path class="cls-1" d="M465,1737.12l-20.6,132.24a67.77,67.77,0,0,0,49.71,76c56.72,15,151.32,31.5,269.13,20.49a67.6,67.6,0,0,0,61-63.54l7.73-134.35a67.77,67.77,0,0,0-66.86-71.65,2003.73,2003.73,0,0,1-224.7-15.94A67.73,67.73,0,0,0,465,1737.12Z"/><g class="cls-3"><path class="cls-2" d="M831.92,1767.93l-7.72,134.36a67.58,67.58,0,0,1-61,63.52c-117.8,11-212.4-5.52-269.12-20.48a67.82,67.82,0,0,1-49.76-55.4,67.41,67.41,0,0,0,25.48,12.92c56.72,14.92,151.32,31.48,269.12,20.48a67.62,67.62,0,0,0,61-63.56l7.72-134.32a70.19,70.19,0,0,0-.6-14A67.51,67.51,0,0,1,831.92,1767.93Z"/></g><path class="cls-2" d="M686.61,1985.41c-83.12,0-150.69-12.51-196.6-24.61a83.58,83.58,0,0,1-61.45-93.91l20.6-132.23a83.34,83.34,0,0,1,93.22-70.2,1994.41,1994.41,0,0,0,222.89,15.83,83.75,83.75,0,0,1,82.64,88.56l-7.73,134.35c-2.36,41-34.81,74.76-75.48,78.56C737.4,1984.3,711.32,1985.41,686.61,1985.41ZM480.78,1739.58l-20.6,132.24a51.65,51.65,0,0,0,38,58c57.07,15.05,149.12,30.74,263.56,20,25.06-2.34,45-23.2,46.51-48.53L816,1767a51.75,51.75,0,0,0-51.09-54.72,2026.66,2026.66,0,0,1-226.51-16.08,51.49,51.49,0,0,0-57.58,43.37Z"/><path class="cls-1" d="M1231.4,1834.65c-8,87.4-55.92,132.88-99.92,140.28-40.68,6.84-78-18.92-77.24-74.16,1.6-118-48.32-215.2-48.32-215.2l-12.68-151.68-7.16-85.68-.12-1.36s32.36,21.6,73.6,58.72C1136.32,1574.57,1243.92,1697.29,1231.4,1834.65Z"/><g class="cls-3"><path class="cls-2" d="M1223.08,1879c-37,125.16-170.24,125.72-168.84,21.76,1.28-95.12-30.92-176.72-43.44-204.8,33,26.24,75.2,73.92,74.24,145.84C1083.92,1925.57,1170.2,1941.49,1223.08,1879Z"/></g><path class="cls-2" d="M1010.65,1683.15c16.93,16,26.72,35.65,34.28,56,7.79,20.3,12.7,41.57,16.32,63s6.69,43,8,64.75c.91,10.87.82,21.81,1,32.73.09,9.57.83,18.17,3.29,26.34,4.7,16.27,16.18,28.12,31.46,32.18,15.24,4.28,33.21.74,48.56-8,7.78-4.28,14.81-10.18,21.24-16.68a114.46,114.46,0,0,0,16.93-22.08c9.74-16.13,16.4-34.49,20.15-53.69a212.83,212.83,0,0,0,3.85-29.21c.19-4.91.58-9.81.65-14.73l-.43-14.77a274.21,274.21,0,0,0-10.43-58.43c-5.5-19.19-13.44-37.77-22.44-55.84a423.62,423.62,0,0,0-31.23-52.27c-23.26-33.55-50.44-64.67-80-93.4q-11.08-10.79-22.6-21.15c-7.65-6.92-16-13.11-24.06-19.48a236.76,236.76,0,0,1-23.18-20.53c-7.21-7.51-13.91-15.81-19-26.51l-.12-.24a6.06,6.06,0,0,1,2.89-8.07,6.13,6.13,0,0,1,3.15-.56c12.34,1.15,22.51,5.45,32,10.73a164,164,0,0,1,26.1,19l23.63,21.9c7.94,7.21,15.8,14.52,23.49,22,30.79,29.93,59.3,62.49,84,98.14a455.72,455.72,0,0,1,33.48,56.06c9.75,19.57,18.43,39.88,24.55,61.19a306,306,0,0,1,11.68,65.62l.49,16.79c-.07,5.6-.49,11.21-.73,16.81a243,243,0,0,1-4.41,33.33,197,197,0,0,1-24.13,63.89,146.26,146.26,0,0,1-21.42,27.88,126.15,126.15,0,0,1-28.29,22.12,108.21,108.21,0,0,1-34.68,12.65,87.33,87.33,0,0,1-38.28-1.58,75.54,75.54,0,0,1-34.12-20,81.64,81.64,0,0,1-19.38-33.59c-3.68-12-4.64-24.58-4.68-36-.18-10.12-.06-20.24-.93-30.36-.44-10.14-1.78-20.23-2.9-30.33-1.57-10.06-3.2-20.11-5.58-30-4.59-19.87-10.29-39.41-15.5-59.16-5.52-19.66-10.65-39.46-12.16-61.36l0-.37a5.65,5.65,0,0,1,9.51-4.5Z"/><path class="cls-4" d="M1132.94,42.2c20.7,44.5,1.43,320.36-176.65,595.15A1186.16,1186.16,0,0,1,700.11,920.11L599,834c-5,1,9.18-62.61,32.12-138.56,18.54-61.32,42.79-130.63,67.24-180.45C911.54,80.88,1092.06-45.55,1132.94,42.2Z"/><path class="cls-2" d="M700.06,923.35,597.91,836.29a3,3,0,0,1-1.24-.82c-6.41-7,21.71-106.5,32.06-140.8,12.82-42.37,38.62-122.19,67.39-180.83C866,168,1017.92,13.49,1093.51,13.49h.57c18.57.19,32.79,9.75,41.12,27.65h0c22.61,48.58-3.08,329.49-176.81,597.57A1189.89,1189.89,0,0,1,701.67,922.06ZM600.5,831.93l.13.12,99.53,84.82A1184.73,1184.73,0,0,0,954.19,636C1126.94,369.43,1153,91.18,1130.67,43.25,1123.1,27,1110.77,18.66,1094,18.49h-.55c-74,0-224,153.63-392.86,497.56C672,574.37,646.29,653.9,633.52,696.12,611.09,770.42,599.46,824,600.5,831.93Z"/><path class="cls-2" d="M700.13,936.09a16,16,0,0,1-10-28.51c218.71-174.53,326.07-386.42,377.63-533.43,61-173.93,61-303.09,50.66-325.18-5.34-11.46-13.14-16.85-24.56-17h-.41c-33.56,0-88.88,42-148.14,112.37C871.3,232.32,790.88,362.9,712.75,522c-50.39,102.61-96.13,278.61-98.65,306.63a15.8,15.8,0,0,1,.6,2.17,16,16,0,0,1-12.53,18.85,16.45,16.45,0,0,1-16.37-6.15c-4.26-5.52-10.7-13.87,25-135.76C621.79,670.06,651,575.15,684,507.9,835.65,199.14,996.23,0,1093.47,0h.74c23.78.25,42.69,12.84,53.22,35.46,17.46,37.49,10,179.73-49.47,349.28C1045,535.72,934.75,753.32,710.1,932.59A15.9,15.9,0,0,1,700.13,936.09Z"/><path class="cls-5" d="M742.09,747a530.57,530.57,0,0,1,57-2.47A24.31,24.31,0,0,0,818.76,735c16.79-22.1,59.79-82.36,118.09-190.64,85.08-158,135.32-345.25,103.24-362.48C991.35,155.67,801.73,420.15,716.52,716A24.28,24.28,0,0,0,742.09,747Z"/><path class="cls-2" d="M739.63,749.64a26.19,26.19,0,0,1-20.34-9.6,27,27,0,0,1-5.17-24.7c75.94-263.71,237.59-506.21,305.34-534.75,8.77-3.7,16.11-4,21.82-.94,3.91,2.11,6.83,6.26,8.66,12.34,13.44,44.72-31.13,205.41-110.89,353.53-58.8,109.21-102.32,169.93-118.3,191a27.07,27.07,0,0,1-21.7,10.57,522.2,522.2,0,0,0-56.72,2.46h0C741.42,749.6,740.52,749.64,739.63,749.64Zm292.86-567.08a29.16,29.16,0,0,0-11.08,2.63c-66.9,28.19-226.92,269.13-302.48,531.53a21.9,21.9,0,0,0,4.21,20.12,21.38,21.38,0,0,0,18.7,7.7h0a526.72,526.72,0,0,1,57.27-2.49,22.45,22.45,0,0,0,17.65-8.59c15.92-20.94,59.25-81.41,117.89-190.31,77.93-144.72,123.39-306.83,110.5-349.72-1.44-4.77-3.53-7.92-6.24-9.37A13.32,13.32,0,0,0,1032.49,182.56Z"/><g class="cls-3"><path class="cls-2" d="M1040.09,181.86c6.57,3.53,9.69,14.24,9.76,30.37-63.74,16-231.09,262-309.7,534.89A24.29,24.29,0,0,1,716.51,716C801.75,420.15,991.35,155.67,1040.09,181.86Z"/></g><path class="cls-2" d="M739.73,759.64a36.8,36.8,0,0,1-35.22-47.07c78-270.77,239.94-511.23,311.07-541.2,11.68-4.92,21.92-5.11,30.43-.53,6.34,3.41,10.88,9.56,13.5,18.27,15.53,51.66-37.69,223.79-111.65,361.15-59.14,109.84-103,171-119.15,192.27a37.35,37.35,0,0,1-29.77,14.52,512.46,512.46,0,0,0-55.64,2.42C742.11,759.58,740.92,759.64,739.73,759.64Zm293-567.14a20.5,20.5,0,0,0-7.4,1.91c-24.15,10.17-76,61.54-142.85,172.83-65,108.35-119.69,233.45-153.9,352.25a11.76,11.76,0,0,0,2.28,11,11.38,11.38,0,0,0,10,4.14h0a542.11,542.11,0,0,1,58.35-2.53,11.28,11.28,0,0,0,9.59-4.64c15.76-20.75,58.73-80.72,117-189C964.13,467.32,998,385,1018.79,312.53c24.67-86,19-116.1,15.12-119.85A3.07,3.07,0,0,0,1032.69,192.5Z"/><path class="cls-2" d="M1195.72,1149.08c-.5,0-1,0-1.51-.07a16,16,0,0,1-14.39-14l-.13-1.58c-.27-6-.62-11.31-1.07-16.36l-.14-2.46c-6.73-80.23-31.66-158.58-72.07-226.11a16,16,0,0,1,27.46-16.43c42.9,71.69,69.36,154.8,76.53,240.35l.12,2.09c.45,5.08.8,10.41,1.08,16.24l.22,1.11-.19,2.74A16,16,0,0,1,1195.72,1149.08Z"/><path class="cls-2" d="M1195.76,1150.39a16,16,0,0,1-15.89-14.27c0-.51-.08-1-.1-1.5l-.17-1.84,0-.19-1-15.9a16,16,0,1,1,31.93-2.08l1.29,17.23-.08,1.29a16,16,0,0,1-14.23,17.17A17.09,17.09,0,0,1,1195.76,1150.39Z"/><g class="cls-3"><path class="cls-6" d="M1059.56,1505.57a321.07,321.07,0,0,1-38.48,18.44c-9.08,3.64-18.4,6.92-27.84,9.88-56.28,17.44-118.56,22.64-178.32,19.76-157.6-7.6-280.64-49-280.64-49-13.4-4.4-26.84-9.2-40.16-14.4-35.56-13.88-70.28-30.8-101.68-51.4-31.64-20.68-59.88-45.08-82.28-73.8l-4-4.4c-4.2-4.68-8.08-8.92-11.76-12.76a608.41,608.41,0,0,0,117.36,40.56c1.08.24,2.16.48,3.36.72.84-1.72,1.56-3.2,2.2-4.44l568.76,63.44-.12-1.36S1018.32,1468.45,1059.56,1505.57Z"/><path class="cls-2" d="M845.37,1556.89q-15.15,0-30.57-.74c-156.14-7.53-280.08-48.67-281.32-49.09-13.71-4.5-27.26-9.36-40.27-14.44-38.39-15-72.76-32.36-102.14-51.64-33.69-22-61.57-47-82.88-74.35l-3.88-4.25c-4.19-4.68-8.05-8.9-11.72-12.71l-9.13-9.54,12,5.54a605,605,0,0,0,116.87,40.39l1.41.31c.5-1,.95-1.93,1.37-2.74l.79-1.53,567.43,63.29-.32-3.52,4.35,2.9c.32.22,33,22.13,73.88,58.94l2.58,2.33-3,1.71a324.38,324.38,0,0,1-38.78,18.59c-8.82,3.53-18.25,6.88-28,9.94C950.12,1549.88,899.24,1556.89,845.37,1556.89Zm-540.72-201.6c1.1,1.22,2.23,2.46,3.37,3.74l4,4.39c21.09,27,48.57,51.67,81.8,73.38C422.9,1455.89,457,1473.1,495,1488c12.92,5,26.39,9.87,40,14.35,1.25.42,124.57,41.34,280,48.84,64.53,3.09,125.93-3.69,177.46-19.65,9.64-3,19-6.33,27.65-9.81a322.63,322.63,0,0,0,35.13-16.6,752.43,752.43,0,0,0-67.88-54.22l-1.6-.18-567-63.25c-.43.86-.9,1.82-1.41,2.86l-.84,1.74-1.9-.38-3.4-.73A605.53,605.53,0,0,1,304.65,1355.29Z"/></g><path class="cls-4" d="M1766.41,626.74c-21.32,49-287.3,250.32-646.25,253.54Q1126,890,1131.34,900c35,64.7,56.74,137.77,63.1,213.76l.12,1.9c.13,2.88.48,8.9,1.12,17.06a.79.79,0,0,1,0,.41c2.76,33.85,11,104,34.11,144,33.92,58.59-38.92,52-63.75,48a2.3,2.3,0,0,0-1.87,3.88c19.13,17.66,44.1,64.88,10.69,77.89-26.32,10.23-34.36,1.76-97.55,36.34l-5.28,2.85c-72.23,46-167.53,59.9-257.14,55.59-157.58-7.61-280.63-49-280.63-49-85.43-27.94-171.15-71.66-224.13-139.59l-4-4.38c-48.28-54-58.58-48.8-80-67.36-27.23-23.58,11.78-59.68,35.67-69.79a2.33,2.33,0,0,0-.47-4.32c-24.68-4.61-95.6-23.07-44.36-66.82,35.07-29.9,66.05-93.57,79.67-124.48l.17-.36.54-1.3c1.7-4.29,3.49-8.52,5.42-12.7l-4,9.4c1.79-4.07,3.11-7.25,4-9.4a8.22,8.22,0,0,0,.4-1,6.75,6.75,0,0,0,.52-1.21c0-.13.13-.32.18-.49,88.68-199.22,288.59-332.62,509-298.64a447.52,447.52,0,0,1,113.91,38.61C999.51,657,1093.64,623.45,1124.39,615c388.22-106.85,601.8-89.16,640.11-29C1772.25,598.08,1772.88,611.9,1766.41,626.74Z"/><path class="cls-2" d="M846,1504.9c-10.91,0-21.37-.27-31.25-.75-156.12-7.54-280.07-48.68-281.3-49.1-103.13-33.73-178.94-81-225.31-140.42l-3.85-4.25c-32.58-36.44-47.52-45.59-60.69-53.66a131.31,131.31,0,0,1-19.11-13.48c-8-6.94-11.32-15.36-9.79-25,3.39-21.52,29.53-42,46.13-49-17.19-2.78-57.9-12.65-63.81-34.76-2.93-11,3.23-23.09,18.33-36,35.47-30.25,67.07-96.5,79-123.58l.49-1.15c2-5,3.77-9.2,5.65-13.26h0c.14-.3.22-.5.29-.69l.21-.49a3.74,3.74,0,0,0,.28-.65l.18-.49C345.85,858.5,419,774,507.7,720c93.66-57.07,199.33-78.58,305.6-62.2A450.62,450.62,0,0,1,926.74,696c69.38-39.74,162.38-73.93,197-83.47,177.88-49,334.15-75.66,451.91-77.22,102.2-1.35,169.88,16.17,191,49.31,8.24,12.86,8.94,27.36,2.09,43.09h0c-10.45,24-80.5,86.74-197.69,145.18-97.86,48.79-254.47,107.24-446.49,109.81,3.18,5.41,6.21,10.8,9,16.06,35.16,65,57.08,139.28,63.39,214.73l.13,2c.12,2.91.47,8.9,1.12,17l0,.41v.14c3,36.77,11.37,104.06,33.76,142.82,10,17.31,11.85,30.85,5.4,40.21-12.89,18.73-54.45,14.29-71.71,11.5,13.63,12,31.58,40.23,27.54,61.61-1.8,9.48-7.66,16.22-17.41,20a128.44,128.44,0,0,1-22.48,6.22c-15.08,3.12-32.16,6.66-74.78,30l-5.3,2.86C1002.14,1493.59,915.11,1504.9,846,1504.9Zm-545-533c-.44,1.07-.88,2.15-1.32,3.26l-.56,1.36c-12.25,27.79-44.26,94.85-80.52,125.76-13.5,11.53-19.13,21.93-16.74,30.89,5.32,19.9,47.22,29.2,59.94,31.58a4.82,4.82,0,0,1,1,9.06c-16.18,6.86-40.18,26.36-43.15,45.16-1.23,7.83,1.5,14.71,8.13,20.45a127.18,127.18,0,0,0,18.45,13c13.47,8.25,28.74,17.6,61.8,54.58l4,4.38c45.86,58.78,120.86,105.46,223,138.89,1.25.42,124.58,41.34,280,48.85,71.73,3.42,174.32-3.34,255.68-55.21l5.43-2.94c43.27-23.67,60.74-27.29,76.15-30.49a124.32,124.32,0,0,0,21.69-6c8-3.13,12.85-8.61,14.3-16.29,3.54-18.67-12.7-45.35-25.78-57.43a4.79,4.79,0,0,1,4-8.18c12.72,2,55.19,7.42,66.78-9.4,5.26-7.64,3.37-19.38-5.6-34.88-22.91-39.66-31.41-107.9-34.44-145l0-.41,0-.15c-.67-8.29-1-14.17-1.13-17l-.12-1.85c-6.25-74.72-28-148.3-62.81-212.73-3.43-6.41-7.17-13-11.12-19.6l-2.25-3.74,4.37,0c357.61-3.2,623.43-204.83,644-252h0c6.15-14.1,5.56-27-1.73-38.39-37.92-59.59-253.55-75.6-637.34,30-34.58,9.53-127.87,43.86-197,83.65l-1.16.67-1.2-.6a445.71,445.71,0,0,0-113.28-38.4c-209.24-32.27-412.76,87.17-506.25,297.21a12.25,12.25,0,0,1-.69,1.7c-.1.3-.24.62-.4,1l0,.07c-.81,2.05-2.14,5.25-3.94,9.33Z"/><g class="cls-3"><path class="cls-2" d="M1766.41,626.74c-21.32,49-287.3,250.32-646.25,253.54Q1126,890,1131.34,900l-51.21-47.27c2,.38,83.58,16,326.43-50.08C1627.45,742.41,1740,616.38,1764.5,586,1772.25,598.08,1772.88,611.9,1766.41,626.74Z"/></g><g class="cls-3"><path class="cls-2" d="M1231.69,1280.55c29.15,54.87-41.32,48.46-65.64,44.55a2.3,2.3,0,0,0-1.87,3.88c19.13,17.66,44.1,64.88,10.69,77.89-26.32,10.23-34.36,1.76-97.55,36.34l-5.28,2.85c-72.23,46-167.53,59.9-257.14,55.59-157.58-7.61-280.63-49-280.63-49-85.43-27.94-171.15-71.66-224.13-139.59l-4-4.38c-2.75-3.09-5.42-6-7.92-8.69,51.9,47.24,120.75,79.89,189.39,102.36,0,0,123.09,41.35,280.67,49,89.62,4.35,184.87-9.53,257.14-55.59l5.24-2.8c63.23-34.63,71.23-26.12,97.58-36.39,33.38-13,8.44-60.23-10.68-77.89a2.3,2.3,0,0,1,1.86-3.88C1135.65,1277.42,1199.11,1289.09,1231.69,1280.55Z"/></g><path class="cls-2" d="M845.48,1518.39c-11.09,0-21.59-.3-31.34-.77h0c-35.71-1.72-72.56-5.31-109.54-10.66-102.59-14.86-172.5-38.12-175.43-39.11C423.85,1433.4,346,1384.79,297.92,1323.42l-3.6-4c-31.32-35-45.35-43.64-57.73-51.22a144.59,144.59,0,0,1-20.92-14.81c-11.44-9.91-16.51-23.15-14.28-37.3,2.45-15.54,13.54-30.13,26.32-41.29-19.6-7.07-38.79-18.53-43.69-36.83-4.4-16.45,3.21-33.19,22.61-49.76,33.25-28.34,63.64-92.11,75.28-118.5l.46-1.07c1.93-4.79,4-9.52,6-14.22l.84-2h0l0-.07C334.63,850.53,409.7,763.9,500.69,708.45c96.4-58.75,205.21-80.87,314.66-64l.63.11a463.13,463.13,0,0,1,110.28,36.23c73.59-41.06,163.2-72.81,193.88-81.25,332.45-91.5,588.42-103.2,652.14-29.8,15.6,18,18.72,40.48,8.79,63.37C1767.38,664.59,1687.32,730,1577,785c-95.27,47.5-245.54,104-429.84,110.66,35.07,66.06,56.82,140.43,63.21,216.74l.14,2.39c.1,2.58.4,7.83,1,15.7l.27,1.35-.08,1.1c2.42,29.31,10.23,98.64,31.91,136.15,12.86,22.22,14.48,40.6,4.81,54.64-10.52,15.29-31.36,20-53,20h-.11c8.38,14.93,14,32.5,11.07,48-2.64,14-11.79,24.64-25.76,30.09a142.24,142.24,0,0,1-24.65,6.87c-14.15,2.93-30.19,6.25-71,28.62l-4.86,2.6a318.83,318.83,0,0,1-41,21.87C973.73,1510.88,902,1518.39,845.48,1518.39Zm-29.8-32.73c56,2.7,137.94-.85,210.45-33.15a284.75,284.75,0,0,0,37.32-20l1.07-.62,5.26-2.81c44.9-24.58,64.23-28.59,79.76-31.81,6.9-1.42,12.35-2.56,19.54-5.35,4.73-1.85,5.52-4.08,5.92-6.22,2.23-11.79-10-34.27-21.67-45a18.29,18.29,0,0,1,15.24-31.42c31.31,5.06,50.45.77,53.54-3.72,1.07-1.55,1.15-7.82-6.16-20.47-24.21-41.88-33-111.84-36.15-150.2l-.08-1c0-.22,0-.44,0-.66l0-.29c-.55-7.13-1-13.34-1.08-16.73l-.09-1.65c-6.73-80.23-31.66-158.58-72.07-226.11l-14.34-24,27.93-.25c190.48-1.7,345.91-59.62,442.75-107.91,115.72-57.7,181.13-118,189-136,5-11.59,3.89-21-3.6-29.64-22-25.32-90.31-39-182.63-36.68-114.91,2.92-266,29.32-436.86,76.35-26,7.15-120.18,40-193.84,82.34L927.35,717l-7.69-3.84A429.7,429.7,0,0,0,810.16,676c-203-31.16-400.5,84.94-491.5,289.07l-.1.25c-.19.5-.41,1.06-.7,1.68-1.2,3.06-3.1,7.56-5.29,12.51l-1.75,4.1-.06,0c-15.64,35.33-46.79,97.8-83.36,129-11,9.37-13,15.31-12.47,17.14,1.71,6.37,21.06,16.51,49.35,21.77a18.33,18.33,0,0,1,3.82,34.78c-14.39,6.1-33.24,23-35.11,34.83-.35,2.22-.35,4.67,3.62,8.12,5.89,5.09,10.66,8,16.7,11.71,13.55,8.31,30.42,18.64,64.78,57.08l4.69,5.22c44.06,56.49,116.89,101.65,216.46,134.23.81.27,70.42,23.39,170,37.81,36,5.21,71.8,8.7,106.49,10.37ZM1175,1317.19l0,0Z"/><path class="cls-5" d="M1006.56,776a503.71,503.71,0,0,1,37,39.9,23.21,23.21,0,0,0,19.11,8.4c26.43-1.43,96.77-7.35,211.46-31.77,167.37-35.63,334.5-114.64,327.23-148.59-11-51.6-320.31-26.27-588,94.35A23.16,23.16,0,0,0,1006.56,776Z"/><path class="cls-2" d="M1061.41,826.8a25.87,25.87,0,0,1-19.81-9.33,500.5,500.5,0,0,0-36.77-39.71h0a25.49,25.49,0,0,1-7.37-22.7A25.79,25.79,0,0,1,1012.3,736c238.6-107.52,514.69-139.6,577.27-108,8.12,4.11,12.9,9.28,14.2,15.37.89,4.17-.33,8.88-3.65,14-24.22,37.38-168.58,104.15-325.5,137.57-115.69,24.63-186.7,30.46-211.85,31.82Zm-53.11-52.63a503.34,503.34,0,0,1,37.15,40.11,20.84,20.84,0,0,0,17,7.49c25-1.35,95.74-7.16,211.08-31.71,153.28-32.64,299.15-99.58,322.36-135.4,2.56-3.95,3.55-7.4,3-10.23-1-4.53-4.86-8.55-11.57-11.94-61.73-31.24-335.6,1.1-573,108a20.78,20.78,0,0,0-12,15.38,20.22,20.22,0,0,0,5.91,18.25Z"/><g class="cls-3"><path class="cls-2" d="M1601.31,643.91c1.49,7-4.37,15.83-16,25.84-50.93-36.49-333.09-6.34-580,104.86a23.16,23.16,0,0,1,8-36.37C1281,617.66,1590.29,592.31,1601.31,643.91Z"/></g><path class="cls-2" d="M1061.42,836.8a35.89,35.89,0,0,1-27.52-12.95,489.34,489.34,0,0,0-36-38.91h0a35.65,35.65,0,0,1,10.33-58.08c245.1-110.44,520.1-141,585.89-107.76,11,5.54,17.5,13,19.47,22.19,1.47,6.87-.23,14.11-5,21.53-28,43.26-186.2,110.9-331.82,141.91-116.38,24.77-188,30.65-213.4,32C1062.68,836.78,1062.05,836.8,1061.42,836.8ZM1015.27,767a517.86,517.86,0,0,1,37.88,40.9,10.69,10.69,0,0,0,8.8,3.9c24.81-1.35,94.89-7.1,209.54-31.51,74.87-15.95,155.26-42,220.57-71.37,77.51-34.91,96.47-57.65,97-62.86-.11-.27-1.63-2.3-6.25-4.64-22.22-11.24-91.46-17.24-213.44,2.84-118.85,19.56-243.47,57-350.9,105.4a10.67,10.67,0,0,0-6.22,8,10.33,10.33,0,0,0,3,9.35Z"/><path class="cls-2" d="M751.94,1218.65c-6.1,22.47-49.39,34.49-82,30-31.79-4.35-66.71-25.8-63.33-50.47,2.45-17.94,23.28-25.84,76.74-18.46C731.33,1186.36,758,1196.13,751.94,1218.65Z"/><g class="cls-7"><path class="cls-1" d="M692,1199.05c.09,4.55-12.37,7.44-21.41,5.55-5.14-1.07-23.53-5.14-23.63-10.12s6-8.3,23.37-6.23C686.13,1190.13,691.9,1194.5,692,1199.05Z"/><path class="cls-2" d="M676.68,1207a31.87,31.87,0,0,1-6.48-.63c-24.94-5.2-25-10.23-25.07-11.88a6.76,6.76,0,0,1,2.29-5.29c3.62-3.29,11.18-4.2,23.12-2.78,19.07,2.27,23.18,8.09,23.28,12.57a5.16,5.16,0,0,1-2.12,4.07C688.72,1205.54,682.67,1207,676.68,1207ZM661,1189.45c-7.08,0-9.94,1.43-11.09,2.47a3.08,3.08,0,0,0-1.09,2.52c0,1.46,6.07,5,22.16,8.38,7,1.47,15.52-.13,18.43-2.55.3-.25.8-.74.79-1.18-.08-4.17-7.58-7.54-20-9A78.84,78.84,0,0,0,661,1189.45Z"/></g><path class="cls-8" d="M725.07,1280.87c-10,30.42-5.68,75-37.27,92.72-32.49,18.27-68.08-37.79-38.32-85.16"/><path class="cls-2" d="M674.82,1379.63c-8.26,0-16.45-3.78-23.44-11.12-16.11-16.91-23-51.19-4-81.41l4.24,2.66c-17.64,28.07-11.42,59.75,3.4,75.31,9.5,10,21,12.29,31.57,6.34,21.34-12,25.59-37.3,29.71-61.76,1.77-10.55,3.45-20.51,6.41-29.56l4.75,1.55c-2.84,8.69-4.49,18.48-6.23,28.84-4.31,25.62-8.76,52.11-32.19,65.28A28.79,28.79,0,0,1,674.82,1379.63Z"/><path class="cls-2" d="M667.9,1333.67a198,198,0,0,1-2-30.23,104,104,0,0,1,1.25-15.72c.94-5.37,2.12-10.93,5.46-16.87l.41-.74a9.64,9.64,0,0,1,16.8,9.45,10.12,10.12,0,0,1-1.68,2.18c-2.24,2.18-4.34,6-6,10.07a88.92,88.92,0,0,0-4.28,13.16,192,192,0,0,0-4.81,28.51v.09a2.55,2.55,0,0,1-5.07.1Z"/><path class="cls-2" d="M674.9,1385c-9.74,0-19.44-4.35-27.43-12.74-18-18.85-25.33-55.14-4.69-88a7.9,7.9,0,0,1,13.39,8.4c-16.18,25.77-10.67,54.63,2.74,68.71,4.5,4.72,13.71,11.71,25,5.36,19.09-10.74,23-33.67,27-58,1.73-10.28,3.51-20.91,6.61-30.34a7.9,7.9,0,1,1,15,4.92c-2.71,8.3-4.33,17.89-6,28-4.3,25.62-9.18,54.67-34.86,69.11A34.08,34.08,0,0,1,674.9,1385Z"/><g class="cls-3"><path class="cls-2" d="M603.6,1315.64c26.29,17.49,54,6.32,66.92-9.56,0,0,24.76,40,67,21,26.43-11.86,17.39-48.36,17.39-48.36l-157.39-8.36S583.2,1302.06,603.6,1315.64Z"/></g><path class="cls-9" d="M604,1259.32s-13.2,29.22,5.6,41.73c24.25,16.13,49.86-3,61.79-17.65,0,0,24.81,43.44,61.71,28.24,24.7-10.18,16-44.6,16-44.6"/><path class="cls-2" d="M717.54,1317.35c-24,0-41-21.73-46.46-29.77-13,14.43-38.61,31.7-62.89,15.55-20.33-13.53-7.06-43.56-6.49-44.84l4.56,2.06c-.12.27-12.09,27.45,4.7,38.62,28,18.65,55.44-13.43,58.47-17.15l2.3-2.82,1.81,3.16c1,1.69,24.2,41.32,58.59,27.17,22.39-9.23,14.63-41.35,14.55-41.68l4.85-1.22c.09.37,8.9,36.64-17.5,47.52A42.89,42.89,0,0,1,717.54,1317.35Z"/><path class="cls-2" d="M717.6,1322.74c-20.53,0-37.29-14-47.18-26.66-17.81,17.13-43,26.34-65.22,11.55-19.25-12.81-14.35-38.44-8.42-51.56a7.9,7.9,0,0,1,14.41,6.5c-.22.49-10.1,23.34,2.77,31.9,24,16,48.57-12.73,51.28-16.06l7.28-8.93,5.71,10c.87,1.51,21.85,37.17,51.84,24.85,18-7.43,11.65-34.24,11.37-35.37a7.9,7.9,0,0,1,15.32-3.85c3.59,14.2,3.87,43.72-20.67,53.83A48.18,48.18,0,0,1,717.6,1322.74Z"/><g class="cls-3"><path class="cls-2" d="M733.07,1311.64c-36.88,15.21-61.7-28.24-61.7-28.24-11.92,14.66-37.55,33.79-61.8,17.64-12.28-8.18-5.48-30-3.07-39.57,1.25,5.15,3.21,15.07,6.15,19.71,11.36,18,42.23-12.32,54.15-27,0,0,33.39,59.15,67.07,37.78,9.38-5.94,10-19,12-26.85C747.18,1275.27,751.66,1304,733.07,1311.64Z"/></g><path class="cls-2" d="M673.81,1233.5c-.49,3.85-.82,8-1,12s-.21,8,0,11.93c.37,7.73,1.73,15.6,4.54,20.74a9.55,9.55,0,0,1-16.76,9.15,9.78,9.78,0,0,1-.74-1.74l-.11-.37a53.07,53.07,0,0,1-2.12-14.89,91,91,0,0,1,1-13.59c.59-4.4,1.45-8.68,2.44-12.9s2.12-8.31,3.51-12.56a4.78,4.78,0,0,1,9.29,2.09Z"/><ellipse class="cls-2" cx="506.74" cy="1131.25" rx="92.28" ry="66.81" transform="translate(-682.78 1479.9) rotate(-82.21)"/><ellipse class="cls-1" cx="525.62" cy="1119.17" rx="30.99" ry="20.19" transform="translate(-654.49 1488.17) rotate(-82.21)"/><path class="cls-2" d="M962.91,1154.65a186.81,186.81,0,0,0-31.84,9.11,158.07,158.07,0,0,0-28.47,14,174.35,174.35,0,0,0-24.93,19,257,257,0,0,0-21.94,22.56L841,1194a110.18,110.18,0,0,1,15.4-2.23c5-.46,10-.52,15-.53a170.81,170.81,0,0,1,29.82,3.08c9.82,2,19.58,4.64,28.7,9s17.69,10,24.41,17.53a1.87,1.87,0,0,1-1.62,3.09h0c-9.78-1.2-18.68-2.42-27.6-3.08-4.46-.29-8.81-.74-13.23-.84-4.37-.28-8.75-.36-13.14-.27-8.75,0-17.49.59-26.17,1.44-4.35.33-8.67.92-13,1.4l-12.34,1.67-1.15.16A15.38,15.38,0,0,1,832.55,1199a165.7,165.7,0,0,1,42.74-34.5,183,183,0,0,1,16.66-8c11.46-4.46,23.36-7.87,35.53-9s24.5-.19,35.86,4.49a1.36,1.36,0,0,1-.26,2.6Z"/><path class="cls-10" d="M1055.19,1583.35c-137.12,64.32-365.59,33.45-365.59,33.45s-229.48-22.71-348-116.94c-98.23-78.07-39.77-152.46-39.77-152.46s1.72,1.29,5.16,3.61c28.5,19.37,173.38,111.4,397.12,142.15,224.75,21.72,387-34.38,419.17-46.65,3.88-1.46,5.85-2.32,5.85-2.32S1168.8,1530.06,1055.19,1583.35Z"/><g class="cls-3"><path class="cls-2" d="M1129.08,1439.19s-1.38.59-4,1.6c-3.4,28.63-21.06,65-79.92,92.56-137.12,64.32-365.59,33.45-365.59,33.45s-229.48-22.71-348-116.93c-24-19-38.55-37.87-47-55.45-.77,27.75,10.74,63.68,57,100.45C460.12,1589.09,689.6,1611.8,689.6,1611.8s228.47,30.87,365.59-33.45C1168.8,1525.06,1129.08,1439.19,1129.08,1439.19Z"/></g><g class="cls-7"><path class="cls-1" d="M291.78,1377.4s1.72,1.29,5.16,3.61c28.49,19.37,173.38,111.4,397.12,142.15,224.75,21.72,387-34.38,419.17-46.65,3.88-1.46,5.85-2.32,5.85-2.32s8.41,18.26,6.39,43.15c20.88-40.75,3.61-78.15,3.61-78.15s-2,.86-5.85,2.32c-32.2,12.27-194.42,68.37-419.17,46.65C480.32,1457.41,335.43,1365.38,306.94,1346c-3.44-2.32-5.16-3.61-5.16-3.61s-14.42,18.38-16.89,46.44A75.35,75.35,0,0,1,291.78,1377.4Z"/></g><path class="cls-2" d="M816.59,1640.36c-69.25,0-122.67-6.84-128.85-7.67-13-1.31-236.27-25-356.14-120.3-109.43-87-43.08-174-42.39-174.88l9.68-12.32,12.52,9.43c.15.11,1.66,1.23,4.49,3.14,26.47,18,169.49,109.13,390,139.51,221.55,21.34,381.74-34.33,411.62-45.71,3.26-1.24,5-2,5.19-2.06l14.31-6.17,6.57,14.14c.46,1,44.93,101-81.62,160.37h0C989.19,1632,893.2,1640.36,816.59,1640.36Zm-509.68-270.2c-9.76,21.75-18.17,67.29,44.6,117.18,113.45,90.15,337.42,113.31,339.66,113.54l.57.06c2.24.3,225.46,29.47,356.66-32.08,72.54-34,74.92-80.23,70.43-103.71-48.12,16.93-205.89,64.27-416.3,43.94l-.64-.07C492.42,1480.23,349.86,1397.77,306.91,1370.16Zm748.28,213.19h0Z"/><circle class="cls-11" cx="698.28" cy="1820.44" r="43.96"/><path class="cls-12" d="M698.38,1866.77a47.13,47.13,0,0,1-5.91-.37,46.26,46.26,0,1,1,5.91.37Zm-.18-87.93a41.6,41.6,0,1,0,41.35,46.82h0a41.61,41.61,0,0,0-36-46.49A43.09,43.09,0,0,0,698.2,1778.84Z"/><path class="cls-1" d="M741.9,1826a41.87,41.87,0,0,1-1.44,6.87A44,44,0,0,0,654.34,1822a41.46,41.46,0,0,1,.32-7,44,44,0,1,1,87.24,11Z"/><g class="cls-13"><path class="cls-14" d="M741.89,1825.94a44,44,0,0,1-87.22-11,43,43,0,0,1,5-15.41,43.92,43.92,0,0,0,81.23,10.27A43.17,43.17,0,0,1,741.89,1825.94Z"/></g><path class="cls-2" d="M698.39,1872.29a52.62,52.62,0,0,1-6.61-.42,51.84,51.84,0,1,1,57.93-44.93h0a51.87,51.87,0,0,1-51.32,45.35Zm-.19-87.94A36.1,36.1,0,1,0,734.08,1825h0a36.08,36.08,0,0,0-31.27-40.33A37.67,37.67,0,0,0,698.2,1784.35Z"/><path class="cls-2" d="M580.46,1962.77a10.14,10.14,0,0,1-1.34-.08A10.5,10.5,0,0,1,570,1951l12.86-101.74-46.21-44.92a10.47,10.47,0,0,1-3.1-8.85l13-102.61a10.5,10.5,0,0,1,20.84,2.64l-12.31,97.41,46.21,44.91a10.48,10.48,0,0,1,3.1,8.85l-13.52,106.95A10.5,10.5,0,0,1,580.46,1962.77Z"/></g></g></svg>